<svg width="24" height="24" viewBox="0 0 24 24" fill="none" xmlns="http://www.w3.org/2000/svg">
<path d="M2.96429 12.1042L12 22L15.9286 18.0417L22.2143 12.1042L23 9.72917L22.6071 7.35417L21.0357 3.79167L18.2857 3L15.1429 4.1875L12 6.5625L9.25 3.79167L5.32143 3L1.78571 5.77083L1 8.9375L2.96429 12.1042Z" fill="#FFDF34"/>
<path d="M22.2587 3.87906L22.0986 3.71914C20.9381 2.57971 19.4174 2 17.8967 2C16.376 2 14.8554 2.56972 13.6848 3.71914L12.0041 5.37831L10.3233 3.71914C9.16282 2.57971 7.64214 2 6.11145 2C4.58077 2 3.06009 2.57971 1.89957 3.72914L1.7395 3.88906C-0.511507 6.11794 -0.591543 9.70615 1.57943 12.025L11.9941 22L13.3047 20.7506L3.00006 10.6157C1.60944 9.08646 1.66947 6.76762 3.14012 5.30835L3.3002 5.14843C4.05053 4.4088 5.04097 3.999 6.11145 3.999C7.17193 3.999 8.17237 4.4088 8.92271 5.14843L10.6035 6.8076L12.0041 8.1969L13.4147 6.8076L15.0955 5.14843C15.8458 4.4088 16.8362 4.009 17.8967 4.009C18.9572 4.009 19.9476 4.41879 20.698 5.14843L20.858 5.30835C22.3387 6.76762 22.3987 9.09645 20.9981 10.6357L14.5052 16.8226L15.9158 18.2319L22.4187 12.035C23.4992 10.8856 24.0195 9.42629 23.9994 7.96702V7.89705C23.9594 6.43778 23.3792 4.98851 22.2587 3.87906Z" fill="black"/>
</svg>
